Coordinates
version=1
nRows=13
nColumns=38
inDegrees=no

Units are S.I. units (second, meters, Newtons, ...)
If the header above contains a line with 'inDegrees', this indicates whether rotational values are in degrees (yes) or radians (no).

endheader
time	pelvis_tilt	pelvis_list	pelvis_rotation	pelvis_tx	pelvis_ty	pelvis_tz	hip_flexion_r	hip_adduction_r	hip_rotation_r	knee_angle_r	ankle_angle_r	subtalar_angle_r	mtp_angle_r	hip_flexion_l	hip_adduction_l	hip_rotation_l	knee_angle_l	ankle_angle_l	subtalar_angle_l	mtp_angle_l	lumbar_extension	lumbar_bending	lumbar_rotation	arm_flex_r	arm_add_r	arm_rot_r	elbow_flex_r	pro_sup_r	wrist_flex_r	wrist_dev_r	arm_flex_l	arm_add_l	arm_rot_l	elbow_flex_l	pro_sup_l	wrist_flex_l	wrist_dev_l
0.68	-0.294399	1.16438	-1.15948	0.640334	1.05893	0.939615	-0.094079	0.160898	-0.201314	0.35279	-0.323364	0	0	-0.239977	-0.306941	-0.0725239	1.24903	-0.373433	0	0	-0.343321	0.227327	0.206419	-0.0966593	-0.950087	0.0538787	1.64738	0.325076	0	0	0.606375	-0.460624	0.702995	1.07116	0.702677	0	0
0.69	-0.294651	1.15679	-1.15938	0.639079	1.04972	0.941105	-0.116083	0.167967	-0.196046	0.348704	-0.312643	0	0	-0.21089	-0.311017	-0.0661301	1.30579	-0.342153	0	0	-0.352313	0.229889	0.213096	-0.104386	-0.951914	0.0455654	1.64932	0.321577	0	0	0.613579	-0.459923	0.712085	1.07181	0.697978	0	0
0.7	-0.290378	1.14941	-1.16431	0.637699	1.04051	0.942849	-0.140293	0.173471	-0.191017	0.341208	-0.304625	0	0	-0.184239	-0.312389	-0.0618454	1.35656	-0.304249	0	0	-0.361198	0.229812	0.219518	-0.11075	-0.951479	0.0382618	1.64947	0.319832	0	0	0.621086	-0.459489	0.722147	1.07116	0.692774	0	0
0.71	-0.283081	1.14273	-1.17318	0.636216	1.0313	0.944746	-0.166025	0.17769	-0.186899	0.32977	-0.299289	0	0	-0.159468	-0.311177	-0.059954	1.40035	-0.269086	0	0	-0.369599	0.227654	0.225784	-0.115429	-0.949502	0.0324654	1.64852	0.319307	0	0	0.628311	-0.459715	0.732372	1.06987	0.688267	0	0
0.72	-0.274371	1.13733	-1.18432	0.63469	1.02212	0.946681	-0.19078	0.18009	-0.185989	0.317543	-0.296606	0	0	-0.135354	-0.307603	-0.0593014	1.43666	-0.243227	0	0	-0.376812	0.224127	0.2313	-0.117388	-0.94703	0.0297139	1.64679	0.319301	0	0	0.633883	-0.460602	0.74041	1.06873	0.685646	0	0
0.73	-0.264969	1.13307	-1.19663	0.633163	1.01301	0.948599	-0.214207	0.180724	-0.188733	0.305459	-0.295445	0	0	-0.111411	-0.302141	-0.0590258	1.46593	-0.222469	0	0	-0.382969	0.219594	0.236308	-0.117837	-0.944365	0.0286419	1.64468	0.319418	0	0	0.638382	-0.461192	0.746716	1.06743	0.68179	0	0
0.74	-0.255944	1.13019	-1.20882	0.631657	1.00399	0.950455	-0.235834	0.179982	-0.193967	0.294008	-0.295386	0	0	-0.0868947	-0.295533	-0.0588938	1.48869	-0.205417	0	0	-0.387624	0.214697	0.240678	-0.116872	-0.941492	0.0290501	1.64219	0.319504	0	0	0.642263	-0.461998	0.752403	1.06567	0.679578	0	0
0.75	-0.247376	1.12879	-1.22105	0.630156	0.995034	0.952207	-0.256164	0.178326	-0.198853	0.28261	-0.295515	0	0	-0.0620196	-0.28819	-0.0601211	1.50529	-0.190255	0	0	-0.39078	0.209342	0.24469	-0.114792	-0.938351	0.0307124	1.63934	0.319786	0	0	0.644503	-0.462044	0.755297	1.06354	0.676623	0	0
0.76	-0.239301	1.1282	-1.23349	0.628614	0.986114	0.953819	-0.275522	0.175901	-0.202771	0.271963	-0.295377	0	0	-0.0379087	-0.28088	-0.0634919	1.51581	-0.176977	0	0	-0.393273	0.203649	0.248822	-0.112166	-0.935202	0.032921	1.63666	0.319904	0	0	0.64591	-0.463312	0.757171	1.06253	0.67474	0	0
0.77	-0.231521	1.12767	-1.24637	0.627134	0.977196	0.955291	-0.29512	0.173098	-0.204935	0.260479	-0.294774	0	0	-0.0157236	-0.273615	-0.0688043	1.52041	-0.161848	0	0	-0.39563	0.198088	0.253437	-0.109786	-0.932653	0.035101	1.63455	0.319961	0	0	0.647667	-0.465395	0.760317	1.0618	0.675446	0	0
0.78	-0.224252	1.12696	-1.25991	0.625665	0.968326	0.956652	-0.313916	0.169963	-0.205883	0.250694	-0.293555	0	0	0.00420863	-0.266677	-0.0757308	1.51939	-0.148201	0	0	-0.39849	0.192492	0.259264	-0.108023	-0.93113	0.0367839	1.63345	0.319656	0	0	0.648785	-0.46657	0.761933	1.06161	0.674326	0	0
0.79	-0.217934	1.12624	-1.27349	0.624207	0.959524	0.957887	-0.331434	0.166788	-0.205616	0.242817	-0.291806	0	0	0.0223223	-0.260282	-0.0840435	1.51286	-0.137812	0	0	-0.401521	0.186892	0.266262	-0.106885	-0.930176	0.0376109	1.6329	0.318598	0	0	0.648855	-0.466901	0.761041	1.0622	0.669638	0	0
0.8	-0.213067	1.1258	-1.2863	0.622792	0.950806	0.95894	-0.347511	0.163869	-0.203697	0.236099	-0.289845	0	0	0.039221	-0.254573	-0.0927912	1.50114	-0.129831	0	0	-0.40423	0.181856	0.274162	-0.106097	-0.930195	0.0381028	1.63278	0.316899	0	0	0.649867	-0.467583	0.762133	1.06252	0.667393	0	0
